<svg width="35" height="27" viewBox="0 0 35 27" fill="none" xmlns="http://www.w3.org/2000/svg">
<path d="M3.88889 1.92857C3.88889 1.41708 3.68403 0.926543 3.31937 0.564866C2.95472 0.203189 2.46014 0 1.94444 0C1.42875 0 0.934169 0.203189 0.569515 0.564866C0.20486 0.926543 0 1.41708 0 1.92857V25.0714C0 25.5829 0.20486 26.0735 0.569515 26.4351C0.934169 26.7968 1.42875 27 1.94444 27C2.46014 27 2.95472 26.7968 3.31937 26.4351C3.68403 26.0735 3.88889 25.5829 3.88889 25.0714V1.92857ZM18.8669 23.0464C19.0477 22.8673 19.1912 22.6546 19.289 22.4205C19.3869 22.1864 19.4372 21.9354 19.4372 21.682C19.4372 21.4285 19.3869 21.1776 19.289 20.9434C19.1912 20.7093 19.0477 20.4966 18.8669 20.3175L13.9358 15.4286H33.0556C33.5713 15.4286 34.0658 15.2254 34.4305 14.8637C34.7951 14.502 35 14.0115 35 13.5C35 12.9885 34.7951 12.498 34.4305 12.1363C34.0658 11.7746 33.5713 11.5714 33.0556 11.5714H13.9358L18.8669 6.68057C19.2315 6.31869 19.4363 5.82798 19.4361 5.31639C19.4359 4.8048 19.2308 4.31423 18.866 3.95261C18.5011 3.59098 18.0064 3.38793 17.4906 3.38811C16.9748 3.38829 16.4802 3.59169 16.1156 3.95357L7.86722 12.1365C7.5027 12.4982 7.29791 12.9886 7.29791 13.5C7.29791 14.0114 7.5027 14.5018 7.86722 14.8635L16.1156 23.0464C16.2961 23.2257 16.5106 23.368 16.7466 23.465C16.9827 23.5621 17.2357 23.6121 17.4912 23.6121C17.7468 23.6121 17.9998 23.5621 18.2359 23.465C18.4719 23.368 18.6864 23.2257 18.8669 23.0464Z" fill="#040404"/>
</svg>
