<svg width="26" height="26" viewBox="0 0 26 26" fill="none" xmlns="http://www.w3.org/2000/svg">
<path d="M13.9029 1.01997L25.0345 12.1515C25.8137 12.9308 25.2621 14.2628 24.1601 14.2628H22.9232V21.6839C22.9232 22.668 22.5323 23.6118 21.8364 24.3076C21.1406 25.0035 20.1968 25.3944 19.2127 25.3944H17.9759V16.7365C17.9759 15.7901 17.6143 14.8794 16.965 14.1908C16.3157 13.5022 15.4278 13.0877 14.483 13.0322L14.2653 13.026H11.7916C10.8075 13.026 9.86376 13.4169 9.1679 14.1128C8.47204 14.8086 8.08111 15.7524 8.08111 16.7365V25.3944H6.84427C5.86018 25.3944 4.91639 25.0035 4.22053 24.3076C3.52467 23.6118 3.13374 22.668 3.13374 21.6839V14.2628H1.8969C0.796112 14.2628 0.243244 12.9308 1.02245 12.1515L12.154 1.01997C12.386 0.788095 12.7005 0.657837 13.0285 0.657837C13.3564 0.657837 13.671 0.788095 13.9029 1.01997ZM14.2653 15.4997C14.5934 15.4997 14.908 15.63 15.1399 15.8619C15.3719 16.0939 15.5022 16.4085 15.5022 16.7365V25.3944H10.5548V16.7365C10.5548 16.4336 10.6661 16.1412 10.8674 15.9148C11.0687 15.6884 11.3461 15.5438 11.6469 15.5083L11.7916 15.4997H14.2653Z" fill="white"/>
</svg>
