<svg width="430" height="932" viewBox="0 0 430 932" fill="none" xmlns="http://www.w3.org/2000/svg">
<path d="M-77.1064 -249.091C-73.4859 -241.729 65.6069 -248.672 83.9175 -182.324C102.228 -115.977 -28.8755 -124.651 156.381 21.2425C120.096 30.8761 221.496 322.497 55.3948 65.1983C-110.706 -192.1 234.276 116.978 261.072 258.159C287.867 399.341 346.855 88.7952 406.186 104.417C465.517 120.039 480.162 421.93 545.84 291.469C549.702 283.798 538.348 449.591 504.072 539.506C469.796 629.421 610.222 662.408 610.222 662.408C584.969 688.311 507.818 668.38 596.373 756.531C510.6 748.889 350.893 758.777 336.805 725.056C322.716 691.336 268.998 401.861 85.256 329.598C-77.907 251.834 -171.542 -132.564 -35.2167 74.4082C101.109 281.38 -217.922 69.8802 -255.916 -36.09L-77.1064 -249.091Z" stroke="url(#paint0_linear_106_201)" stroke-opacity="0.2"/>
<path d="M-85.4546 -241.88C-81.8341 -234.518 57.2587 -241.461 75.5693 -175.114C93.88 -108.767 -37.2237 -117.441 148.033 28.4528C111.748 38.0864 213.148 329.707 47.0466 72.4086C-119.055 -184.89 225.928 124.188 252.724 265.37C279.519 406.551 338.506 96.0055 397.838 111.627C457.169 127.249 471.814 429.14 537.492 298.68C541.354 291.008 529.999 456.802 495.723 546.716C461.448 636.631 601.874 669.618 601.874 669.618C576.621 695.521 499.47 675.59 588.025 763.742C502.252 756.099 342.545 765.987 328.456 732.267C314.368 698.546 260.65 409.071 76.9079 336.808C-86.2552 259.044 -179.89 -125.353 -43.5648 81.6185C92.7605 288.59 -226.271 77.0905 -264.264 -28.8797L-85.4546 -241.88Z" stroke="url(#paint1_linear_106_201)" stroke-opacity="0.2"/>
<path d="M-94.9953 -233.64C-91.3748 -226.278 47.7179 -233.221 66.0286 -166.874C84.3392 -100.526 -46.7644 -109.2 138.492 36.6932C102.207 46.3268 203.607 337.947 37.5059 80.6489C-128.595 -176.649 216.388 132.428 243.183 273.61C269.978 414.792 328.966 104.246 388.297 119.868C447.628 135.489 462.273 437.381 527.951 306.92C531.813 299.249 520.459 465.042 486.183 554.957C451.907 644.872 592.333 677.858 592.333 677.858C567.08 703.761 489.929 683.831 578.484 771.982C492.711 764.339 333.004 774.228 318.916 740.507C304.827 706.787 251.109 417.312 67.3671 345.048C-95.796 267.284 -189.431 -117.113 -53.1056 89.8589C83.2198 296.831 -235.811 85.3308 -273.804 -20.6394L-94.9953 -233.64Z" stroke="url(#paint2_linear_106_201)" stroke-opacity="0.2"/>
<path d="M-103.344 -226.43C-99.723 -219.068 39.3697 -226.011 57.6804 -159.663C75.991 -93.3158 -55.1126 -101.99 130.144 43.9036C93.8587 53.5372 195.259 345.158 29.1577 87.8593C-136.944 -169.439 208.039 139.639 234.835 280.821C261.63 422.002 320.617 111.456 379.949 127.078C439.28 142.7 453.925 444.591 519.603 314.13C523.465 306.459 512.11 472.252 477.835 562.167C443.559 652.082 583.985 685.069 583.985 685.069C558.732 710.972 481.581 691.041 570.136 779.192C484.363 771.55 324.656 781.438 310.567 747.717C296.479 713.997 242.761 424.522 59.0189 352.259C-104.144 274.495 -197.779 -109.902 -61.4538 97.0693C74.8716 304.041 -244.16 92.5412 -282.153 -13.429L-103.344 -226.43Z" stroke="url(#paint3_linear_106_201)" stroke-opacity="0.2"/>
<path d="M-112.884 -218.189C-109.264 -210.827 29.829 -217.77 48.1396 -151.423C66.4503 -85.0754 -64.6534 -93.7495 120.603 52.1439C84.318 61.7775 185.718 353.398 19.6169 96.0997C-146.484 -161.199 198.499 147.879 225.294 289.061C252.089 430.243 311.077 119.697 370.408 135.318C429.739 150.94 444.384 452.831 510.062 322.371C513.924 314.699 502.57 480.493 468.294 570.408C434.018 660.322 574.444 693.309 574.444 693.309C549.191 719.212 472.04 699.281 560.595 787.433C474.822 779.79 315.115 789.678 301.027 755.958C286.938 722.237 233.22 432.763 49.4781 360.499C-113.685 282.735 -207.32 -101.662 -70.9945 105.31C65.3308 312.281 -253.7 100.782 -291.693 -5.18861L-112.884 -218.189Z" stroke="url(#paint4_linear_106_201)" stroke-opacity="0.2"/>
<path d="M-121.232 -210.979C-117.612 -203.617 21.4809 -210.56 39.7915 -144.213C58.1021 -77.8651 -73.0015 -86.5392 112.255 59.3542C75.9699 68.9879 177.37 360.608 11.2688 103.31C-154.832 -153.988 190.15 155.089 216.946 296.271C243.741 437.453 302.729 126.907 362.06 142.529C421.391 158.15 436.036 460.042 501.714 329.581C505.576 321.91 494.222 487.703 459.946 577.618C425.67 667.533 566.096 700.519 566.096 700.519C540.843 726.422 463.692 706.492 552.247 794.643C466.474 787 306.767 796.889 292.679 763.168C278.59 729.448 224.872 439.973 41.13 367.709C-122.033 289.946 -215.668 -94.4518 -79.3427 112.52C56.9827 319.492 -262.048 107.992 -300.042 2.0217L-121.232 -210.979Z" stroke="url(#paint5_linear_106_201)" stroke-opacity="0.2"/>
<path d="M-130.773 -202.738C-127.153 -195.377 11.9401 -202.32 30.2507 -135.972C48.5614 -69.6247 -82.5423 -78.2988 102.714 67.5946C66.4291 77.2282 167.829 368.849 1.72802 111.55C-164.373 -145.748 180.61 163.33 207.405 304.512C234.2 445.693 293.188 135.147 352.519 150.769C411.85 166.391 426.495 468.282 492.173 337.821C496.035 330.15 484.681 495.943 450.405 585.858C416.129 675.773 556.555 708.76 556.555 708.76C531.302 734.663 454.151 714.732 542.706 802.883C456.933 795.241 297.226 805.129 283.138 771.408C269.05 737.688 215.331 448.213 31.5892 375.95C-131.574 298.186 -225.209 -86.2114 -88.8834 120.76C47.4419 327.732 -271.589 116.232 -309.582 10.2621L-130.773 -202.738Z" stroke="url(#paint6_linear_106_201)" stroke-opacity="0.2"/>
<path d="M-139.121 -195.528C-135.501 -188.166 3.59192 -195.109 21.9026 -128.762C40.2132 -62.4144 -90.8905 -71.0884 94.3661 74.805C58.0809 84.4386 159.481 376.059 -6.62015 118.761C-172.721 -138.538 172.262 170.54 199.057 311.722C225.852 452.904 284.84 142.358 344.171 157.979C403.502 173.601 418.147 475.492 483.825 345.032C487.687 337.361 476.333 503.154 442.057 593.069C407.781 682.984 548.207 715.97 548.207 715.97C522.954 741.873 445.803 721.942 534.358 810.094C448.585 802.451 288.878 812.339 274.79 778.619C260.701 744.898 206.983 455.424 23.2411 383.16C-139.922 305.396 -233.557 -79.0011 -97.2316 127.971C39.0938 334.942 -279.937 123.443 -317.93 17.4724L-139.121 -195.528Z" stroke="url(#paint7_linear_106_201)" stroke-opacity="0.2"/>
<path d="M-148.662 -187.288C-145.042 -179.926 -5.94885 -186.869 12.3618 -120.521C30.6724 -54.174 -100.431 -62.8481 84.8254 83.0453C48.5402 92.679 149.94 384.299 -16.1609 127.001C-182.262 -130.297 162.721 178.781 189.516 319.962C216.311 461.144 275.299 150.598 334.63 166.22C393.961 181.841 408.606 483.733 474.284 353.272C478.146 345.601 466.792 511.394 432.516 601.309C398.24 691.224 538.666 724.21 538.666 724.21C513.413 750.114 436.262 730.183 524.817 818.334C439.044 810.691 279.337 820.58 265.249 786.859C251.161 753.139 197.442 463.664 13.7003 391.401C-149.463 313.637 -243.098 -70.7607 -106.772 136.211C29.553 343.183 -289.478 131.683 -327.471 25.7128L-148.662 -187.288Z" stroke="url(#paint8_linear_106_201)" stroke-opacity="0.2"/>
<path d="M-157.01 -180.077C-153.39 -172.716 -14.297 -179.659 4.01364 -113.311C22.3243 -46.9637 -108.779 -55.6378 76.4772 90.2556C40.192 99.8892 141.592 391.51 -24.5091 134.211C-190.61 -123.087 154.373 185.991 181.168 327.173C207.963 468.354 266.951 157.808 326.282 173.43C385.613 189.052 400.258 490.943 465.936 360.482C469.798 352.811 458.444 518.604 424.168 608.519C389.892 698.434 530.318 731.421 530.318 731.421C505.065 757.324 427.914 737.393 516.469 825.544C430.696 817.902 270.989 827.79 256.901 794.069C242.812 760.349 189.094 470.874 5.35216 398.611C-157.811 320.847 -251.446 -63.5504 -115.121 143.421C21.2049 350.393 -297.826 138.893 -335.819 32.9231L-157.01 -180.077Z" stroke="url(#paint9_linear_106_201)" stroke-opacity="0.2"/>
<path d="M-166.551 -171.837C-162.931 -164.475 -23.8377 -171.418 -5.5271 -105.071C12.7835 -38.7233 -118.32 -47.3974 66.9365 98.496C30.6513 108.13 132.051 399.75 -34.0498 142.452C-200.151 -114.846 144.832 194.231 171.627 335.413C198.422 476.595 257.41 166.049 316.741 181.67C376.072 197.292 390.717 499.183 456.395 368.723C460.257 361.052 448.903 526.845 414.627 616.76C380.351 706.675 520.777 739.661 520.777 739.661C495.525 765.564 418.373 745.633 506.929 833.785C421.155 826.142 261.448 836.03 247.36 802.31C233.272 768.589 179.553 479.115 -4.18858 406.851C-167.352 329.087 -260.987 -55.31 -124.661 151.662C11.6641 358.633 -307.367 147.134 -345.36 41.1635L-166.551 -171.837Z" stroke="url(#paint10_linear_106_201)" stroke-opacity="0.2"/>
<path d="M-174.899 -164.627C-171.279 -157.265 -32.1859 -164.208 -13.8753 -97.8605C4.43537 -31.513 -126.668 -40.1871 58.5883 105.706C22.3031 115.34 123.703 406.96 -42.398 149.662C-208.499 -107.636 136.484 201.442 163.279 342.623C190.074 483.805 249.062 173.259 308.393 188.881C367.724 204.502 382.369 506.394 448.047 375.933C451.909 368.262 440.555 534.055 406.279 623.97C372.003 713.885 512.429 746.871 512.429 746.871C487.176 772.775 410.025 752.844 498.58 840.995C412.807 833.352 253.1 843.241 239.012 809.52C224.924 775.8 171.205 486.325 -12.5368 414.062C-175.7 336.298 -269.335 -48.0997 -133.009 158.872C3.31593 365.844 -315.715 154.344 -353.708 48.3738L-174.899 -164.627Z" stroke="url(#paint11_linear_106_201)" stroke-opacity="0.2"/>
<path d="M-176.45 -163.287C-172.835 -155.921 -33.4592 -163.108 -15.2246 -96.695C3.01012 -30.282 -128.334 -38.7481 57.0377 107.046C20.6656 116.754 121.773 408.628 -44.2193 151.235C-210.211 -106.157 134.924 202.789 161.534 344.131C188.144 485.473 247.769 174.376 307.189 189.921C366.61 205.465 380.775 507.771 446.8 377.01C450.683 369.321 439.028 535.374 404.534 625.477C370.04 715.581 510.684 748.379 510.684 748.379C485.338 774.362 408.07 754.532 496.65 842.663C410.722 835.153 250.687 845.325 236.628 811.579C222.569 777.833 169.233 488.028 -14.7448 415.969C-178.095 338.366 -271.265 -46.4321 -135.023 160.611C1.21991 367.654 -318.077 156.384 -355.966 50.3235L-176.45 -163.287Z" stroke="url(#paint12_linear_106_201)" stroke-opacity="0.2"/>
<path d="M-176.45 -163.287C-172.835 -155.921 -33.4592 -163.108 -15.2246 -96.695C3.01012 -30.282 -128.334 -38.7481 57.0377 107.046C20.6656 116.754 121.773 408.628 -44.2193 151.235C-210.211 -106.157 134.924 202.789 161.534 344.131C188.144 485.473 247.769 174.376 307.189 189.921C366.61 205.465 380.775 507.771 446.8 377.01C450.683 369.321 439.028 535.374 404.534 625.477C370.04 715.581 510.684 748.379 510.684 748.379C485.338 774.362 408.07 754.532 496.65 842.663C410.722 835.153 250.687 845.325 236.628 811.579C222.569 777.833 169.233 488.028 -14.7448 415.969C-178.095 338.366 -271.265 -46.4321 -135.023 160.611C1.21991 367.654 -318.077 156.384 -355.966 50.3235L-176.45 -163.287Z" stroke="url(#paint13_linear_106_201)" stroke-opacity="0.2"/>
<path d="M-184.798 -156.077C-181.183 -148.711 -41.8074 -155.898 -23.5727 -89.4847C-5.33806 -23.0716 -136.683 -31.5377 48.6895 114.256C12.3174 123.965 113.424 415.838 -52.5675 158.446C-218.559 -98.9471 126.576 209.999 153.185 351.341C179.795 492.683 239.42 181.586 298.841 197.131C358.261 212.675 372.427 514.981 438.452 384.22C442.335 376.531 430.679 542.585 396.185 632.688C361.691 722.791 502.336 755.589 502.336 755.589C476.99 781.573 399.722 761.743 488.302 849.873C402.374 842.364 242.339 852.535 228.28 818.789C214.221 785.043 160.885 495.238 -23.093 423.179C-186.443 345.577 -279.614 -39.2218 -143.371 167.821C-7.12826 374.865 -326.425 163.594 -364.314 57.5339L-184.798 -156.077Z" stroke="url(#paint14_linear_106_201)" stroke-opacity="0.2"/>
<path d="M-184.798 -156.077C-181.183 -148.711 -41.8074 -155.898 -23.5727 -89.4847C-5.33806 -23.0716 -136.683 -31.5377 48.6895 114.256C12.3174 123.965 113.424 415.838 -52.5675 158.446C-218.559 -98.9471 126.576 209.999 153.185 351.341C179.795 492.683 239.42 181.586 298.841 197.131C358.261 212.675 372.427 514.981 438.452 384.22C442.335 376.531 430.679 542.585 396.185 632.688C361.691 722.791 502.336 755.589 502.336 755.589C476.99 781.573 399.722 761.743 488.302 849.873C402.374 842.364 242.339 852.535 228.28 818.789C214.221 785.043 160.885 495.238 -23.093 423.179C-186.443 345.577 -279.614 -39.2218 -143.371 167.821C-7.12826 374.865 -326.425 163.594 -364.314 57.5339L-184.798 -156.077Z" stroke="url(#paint15_linear_106_201)" stroke-opacity="0.2"/>
<defs>
<linearGradient id="paint0_linear_106_201" x1="420.754" y1="114.56" x2="178.823" y2="613.272" gradientUnits="userSpaceOnUse">
<stop offset="0.00132747" stop-color="#246FE3"/>
<stop offset="1" stop-color="#B620E0"/>
</linearGradient>
<linearGradient id="paint1_linear_106_201" x1="412.406" y1="121.77" x2="170.474" y2="620.482" gradientUnits="userSpaceOnUse">
<stop offset="0.00132747" stop-color="#246FE3"/>
<stop offset="1" stop-color="#B620E0"/>
</linearGradient>
<linearGradient id="paint2_linear_106_201" x1="402.865" y1="130.011" x2="160.934" y2="628.722" gradientUnits="userSpaceOnUse">
<stop offset="0.00132747" stop-color="#246FE3"/>
<stop offset="1" stop-color="#B620E0"/>
</linearGradient>
<linearGradient id="paint3_linear_106_201" x1="394.517" y1="137.221" x2="152.586" y2="635.933" gradientUnits="userSpaceOnUse">
<stop offset="0.00132747" stop-color="#246FE3"/>
<stop offset="1" stop-color="#B620E0"/>
</linearGradient>
<linearGradient id="paint4_linear_106_201" x1="384.976" y1="145.462" x2="143.045" y2="644.173" gradientUnits="userSpaceOnUse">
<stop offset="0.00132747" stop-color="#246FE3"/>
<stop offset="1" stop-color="#B620E0"/>
</linearGradient>
<linearGradient id="paint5_linear_106_201" x1="376.628" y1="152.672" x2="134.697" y2="651.383" gradientUnits="userSpaceOnUse">
<stop offset="0.00132747" stop-color="#246FE3"/>
<stop offset="1" stop-color="#B620E0"/>
</linearGradient>
<linearGradient id="paint6_linear_106_201" x1="367.087" y1="160.912" x2="125.156" y2="659.624" gradientUnits="userSpaceOnUse">
<stop offset="0.00132747" stop-color="#246FE3"/>
<stop offset="1" stop-color="#B620E0"/>
</linearGradient>
<linearGradient id="paint7_linear_106_201" x1="358.739" y1="168.123" x2="116.808" y2="666.834" gradientUnits="userSpaceOnUse">
<stop offset="0.00132747" stop-color="#246FE3"/>
<stop offset="1" stop-color="#B620E0"/>
</linearGradient>
<linearGradient id="paint8_linear_106_201" x1="349.198" y1="176.363" x2="107.267" y2="675.075" gradientUnits="userSpaceOnUse">
<stop offset="0.00132747" stop-color="#246FE3"/>
<stop offset="1" stop-color="#B620E0"/>
</linearGradient>
<linearGradient id="paint9_linear_106_201" x1="340.85" y1="183.573" x2="98.9188" y2="682.285" gradientUnits="userSpaceOnUse">
<stop offset="0.00132747" stop-color="#246FE3"/>
<stop offset="1" stop-color="#B620E0"/>
</linearGradient>
<linearGradient id="paint10_linear_106_201" x1="331.309" y1="191.814" x2="89.378" y2="690.525" gradientUnits="userSpaceOnUse">
<stop offset="0.00132747" stop-color="#246FE3"/>
<stop offset="1" stop-color="#B620E0"/>
</linearGradient>
<linearGradient id="paint11_linear_106_201" x1="322.961" y1="199.024" x2="81.0299" y2="697.736" gradientUnits="userSpaceOnUse">
<stop offset="0.00132747" stop-color="#246FE3"/>
<stop offset="1" stop-color="#B620E0"/>
</linearGradient>
<linearGradient id="paint12_linear_106_201" x1="321.769" y1="200.054" x2="79.7616" y2="700.495" gradientUnits="userSpaceOnUse">
<stop offset="0.00132747" stop-color="#246FE3"/>
<stop offset="1" stop-color="#B620E0"/>
</linearGradient>
<linearGradient id="paint13_linear_106_201" x1="321.769" y1="200.054" x2="79.7616" y2="700.495" gradientUnits="userSpaceOnUse">
<stop offset="0.00132747" stop-color="#246FE3"/>
<stop offset="1" stop-color="#B620E0"/>
</linearGradient>
<linearGradient id="paint14_linear_106_201" x1="313.42" y1="207.264" x2="71.4135" y2="707.705" gradientUnits="userSpaceOnUse">
<stop offset="0.00132747" stop-color="#246FE3"/>
<stop offset="1" stop-color="#B620E0"/>
</linearGradient>
<linearGradient id="paint15_linear_106_201" x1="313.42" y1="207.264" x2="71.4135" y2="707.705" gradientUnits="userSpaceOnUse">
<stop offset="0.00132747" stop-color="#246FE3"/>
<stop offset="1" stop-color="#B620E0"/>
</linearGradient>
</defs>
</svg>
