<svg width="430" height="846" viewBox="0 0 430 846" fill="none" xmlns="http://www.w3.org/2000/svg">
<path d="M32.8935 90.9094C36.514 98.2712 175.607 91.3282 193.917 157.676C212.228 224.023 81.1244 215.349 266.381 361.243C230.096 370.876 331.496 662.497 165.395 405.198C-0.706523 147.9 344.276 456.978 371.072 598.159C397.867 739.341 456.854 428.795 516.186 444.417C575.517 460.039 590.162 761.93 655.84 631.469C659.702 623.798 648.347 789.591 614.072 879.506C579.796 969.421 720.222 1002.41 720.222 1002.41C694.969 1028.31 617.818 1008.38 706.373 1096.53C620.6 1088.89 460.893 1098.78 446.805 1065.06C432.716 1031.34 378.998 741.861 195.256 669.598C32.0929 591.834 -61.5421 207.436 74.7832 414.408C211.109 621.38 -107.923 409.88 -145.916 303.91L32.8935 90.9094Z" stroke="url(#paint0_linear_108_342)" stroke-opacity="0.1"/>
<path d="M24.5454 98.1197C28.1658 105.482 167.259 98.5386 185.569 164.886C203.88 231.233 72.7762 222.559 258.033 368.453C221.748 378.086 323.148 669.707 157.047 412.409C-9.05467 155.11 335.928 464.188 362.723 605.37C389.519 746.552 448.506 436.005 507.838 451.627C567.169 467.249 581.813 769.14 647.492 638.68C651.354 631.008 639.999 796.802 605.723 886.716C571.447 976.631 711.874 1009.62 711.874 1009.62C686.621 1035.52 609.469 1015.59 698.025 1103.74C612.251 1096.1 452.545 1105.99 438.456 1072.27C424.368 1038.55 370.649 749.071 186.908 676.808C23.7447 599.044 -69.8903 214.647 66.4351 421.619C202.76 628.59 -116.271 417.09 -154.264 311.12L24.5454 98.1197Z" stroke="url(#paint1_linear_108_342)" stroke-opacity="0.1"/>
<path d="M15.0046 106.36C18.6251 113.722 157.718 106.779 176.028 173.126C194.339 239.474 63.2355 230.8 248.492 376.693C212.207 386.327 313.607 677.947 147.506 420.649C-18.5954 163.351 326.387 472.428 353.183 613.61C379.978 754.792 438.966 444.246 498.297 459.868C557.628 475.489 572.273 777.381 637.951 646.92C641.813 639.249 630.459 805.042 596.183 894.957C561.907 984.872 702.333 1017.86 702.333 1017.86C677.08 1043.76 599.929 1023.83 688.484 1111.98C602.711 1104.34 443.004 1114.23 428.916 1080.51C414.827 1046.79 361.109 757.312 177.367 685.048C14.2039 607.284 -79.431 222.887 56.8943 429.859C193.22 636.831 -125.811 425.331 -163.805 319.361L15.0046 106.36Z" stroke="url(#paint2_linear_108_342)" stroke-opacity="0.1"/>
<path d="M6.65644 113.57C10.2769 120.932 149.37 113.989 167.68 180.337C185.991 246.684 54.8873 238.01 240.144 383.904C203.859 393.537 305.259 685.158 139.158 427.859C-26.9436 170.561 318.039 479.639 344.835 620.821C371.63 762.002 430.617 451.456 489.949 467.078C549.28 482.7 563.925 784.591 629.603 654.13C633.465 646.459 622.11 812.252 587.834 902.167C553.559 992.082 693.985 1025.07 693.985 1025.07C668.732 1050.97 591.581 1031.04 680.136 1119.19C594.363 1111.55 434.656 1121.44 420.567 1087.72C406.479 1054 352.761 764.522 169.019 692.259C5.85579 614.495 -87.7792 230.098 48.5462 437.069C184.872 644.041 -134.16 432.541 -172.153 326.571L6.65644 113.57Z" stroke="url(#paint3_linear_108_342)" stroke-opacity="0.1"/>
<path d="M-2.88433 121.811C0.736136 129.173 139.829 122.23 158.14 188.577C176.45 254.925 45.3465 246.251 230.603 392.144C194.318 401.778 295.718 693.398 129.617 436.1C-36.4844 178.801 308.499 487.879 335.294 629.061C362.089 770.243 421.077 459.697 480.408 475.318C539.739 490.94 554.384 792.831 620.062 662.371C623.924 654.699 612.57 820.493 578.294 910.408C544.018 1000.32 684.444 1033.31 684.444 1033.31C659.191 1059.21 582.04 1039.28 670.595 1127.43C584.822 1119.79 425.115 1129.68 411.027 1095.96C396.938 1062.24 343.22 772.763 159.478 700.499C-3.68498 622.735 -97.32 238.338 39.0054 445.31C175.331 652.281 -143.7 440.782 -181.693 334.811L-2.88433 121.811Z" stroke="url(#paint4_linear_108_342)" stroke-opacity="0.1"/>
<path d="M-11.2325 129.021C-7.61201 136.383 131.481 129.44 149.791 195.787C168.102 262.135 36.9984 253.461 222.255 399.354C185.97 408.988 287.37 700.608 121.269 443.31C-44.8325 186.012 300.15 495.09 326.946 636.271C353.741 777.453 412.728 466.907 472.06 482.529C531.391 498.15 546.036 800.042 611.714 669.581C615.576 661.91 604.221 827.703 569.946 917.618C535.67 1007.53 676.096 1040.52 676.096 1040.52C650.843 1066.42 573.692 1046.49 662.247 1134.64C576.474 1127 416.767 1136.89 402.679 1103.17C388.59 1069.45 334.872 779.973 151.13 707.709C-12.0331 629.946 -105.668 245.548 30.6573 452.52C166.983 659.492 -152.048 447.992 -190.042 342.022L-11.2325 129.021Z" stroke="url(#paint5_linear_108_342)" stroke-opacity="0.1"/>
<path d="M-20.7732 137.262C-17.1528 144.623 121.94 137.68 140.251 204.028C158.561 270.375 27.4576 261.701 212.714 407.595C176.429 417.228 277.829 708.849 111.728 451.55C-54.3733 194.252 290.61 503.33 317.405 644.512C344.2 785.693 403.188 475.147 462.519 490.769C521.85 506.391 536.495 808.282 602.173 677.821C606.035 670.15 594.681 835.943 560.405 925.858C526.129 1015.77 666.555 1048.76 666.555 1048.76C641.302 1074.66 564.151 1054.73 652.706 1142.88C566.933 1135.24 407.226 1145.13 393.138 1111.41C379.049 1077.69 325.331 788.213 141.589 715.95C-21.5739 638.186 -115.209 253.789 21.1165 460.76C157.442 667.732 -161.589 456.232 -199.582 350.262L-20.7732 137.262Z" stroke="url(#paint6_linear_108_342)" stroke-opacity="0.1"/>
<path d="M-29.1214 144.472C-25.5009 151.834 113.592 144.891 131.902 211.238C150.213 277.586 19.1095 268.912 204.366 414.805C168.081 424.439 269.481 716.059 103.38 458.761C-62.7214 201.462 282.261 510.54 309.057 651.722C335.852 792.904 394.84 482.358 454.171 497.979C513.502 513.601 528.147 815.492 593.825 685.032C597.687 677.361 586.333 843.154 552.057 933.069C517.781 1022.98 658.207 1055.97 658.207 1055.97C632.954 1081.87 555.803 1061.94 644.358 1150.09C558.585 1142.45 398.878 1152.34 384.79 1118.62C370.701 1084.9 316.983 795.424 133.241 723.16C-29.922 645.396 -123.557 260.999 12.7683 467.971C149.094 674.942 -169.937 463.443 -207.931 357.472L-29.1214 144.472Z" stroke="url(#paint7_linear_108_342)" stroke-opacity="0.1"/>
<path d="M-38.6622 152.712C-35.0417 160.074 104.051 153.131 122.362 219.479C140.672 285.826 9.5687 277.152 194.825 423.045C158.54 432.679 259.94 724.299 93.839 467.001C-72.2622 209.703 272.721 518.781 299.516 659.962C326.311 801.144 385.299 490.598 444.63 506.22C503.961 521.841 518.606 823.733 584.284 693.272C588.146 685.601 576.792 851.394 542.516 941.309C508.24 1031.22 648.666 1064.21 648.666 1064.21C623.413 1090.11 546.262 1070.18 634.817 1158.33C549.044 1150.69 389.337 1160.58 375.249 1126.86C361.161 1093.14 307.442 803.664 123.7 731.401C-39.4628 653.637 -133.098 269.239 3.22757 476.211C139.553 683.183 -179.478 471.683 -217.471 365.713L-38.6622 152.712Z" stroke="url(#paint8_linear_108_342)" stroke-opacity="0.1"/>
<path d="M-47.0103 159.923C-43.3898 167.284 95.7029 160.341 114.014 226.689C132.324 293.036 1.22056 284.362 186.477 430.256C150.192 439.889 251.592 731.51 85.4909 474.211C-80.6103 216.913 264.373 525.991 291.168 667.173C317.963 808.354 376.951 497.808 436.282 513.43C495.613 529.052 510.258 830.943 575.936 700.482C579.798 692.811 568.444 858.604 534.168 948.519C499.892 1038.43 640.318 1071.42 640.318 1071.42C615.065 1097.32 537.914 1077.39 626.469 1165.54C540.696 1157.9 380.989 1167.79 366.901 1134.07C352.812 1100.35 299.094 810.874 115.352 738.611C-47.811 660.847 -141.446 276.45 -5.12058 483.421C131.205 690.393 -187.826 478.893 -225.819 372.923L-47.0103 159.923Z" stroke="url(#paint9_linear_108_342)" stroke-opacity="0.1"/>
<path d="M-56.5511 168.163C-52.9306 175.525 86.1622 168.582 104.473 234.929C122.783 301.277 -8.32021 292.603 176.936 438.496C140.651 448.13 242.051 739.75 75.9501 482.452C-90.1511 225.154 254.832 534.231 281.627 675.413C308.422 816.595 367.41 506.049 426.741 521.67C486.072 537.292 500.717 839.183 566.395 708.723C570.257 701.052 558.903 866.845 524.627 956.76C490.351 1046.67 630.777 1079.66 630.777 1079.66C605.524 1105.56 528.373 1085.63 616.928 1173.78C531.155 1166.14 371.448 1176.03 357.36 1142.31C343.272 1108.59 289.553 819.115 105.811 746.851C-57.3517 669.087 -150.987 284.69 -14.6613 491.662C121.664 698.633 -197.367 487.134 -235.36 381.163L-56.5511 168.163Z" stroke="url(#paint10_linear_108_342)" stroke-opacity="0.1"/>
<path d="M-64.8992 175.373C-61.2788 182.735 77.814 175.792 96.1247 242.14C114.435 308.487 -16.6684 299.813 168.588 445.706C132.303 455.34 233.703 746.96 67.602 489.662C-98.4992 232.364 246.484 541.442 273.279 682.623C300.074 823.805 359.062 513.259 418.393 528.881C477.724 544.502 492.369 846.394 558.047 715.933C561.909 708.262 550.555 874.055 516.279 963.97C482.003 1053.88 622.429 1086.87 622.429 1086.87C597.176 1112.77 520.025 1092.84 608.58 1181C522.807 1173.35 363.1 1183.24 349.012 1149.52C334.924 1115.8 281.205 826.325 97.4632 754.062C-65.6999 676.298 -159.335 291.9 -23.0095 498.872C113.316 705.844 -205.715 494.344 -243.708 388.374L-64.8992 175.373Z" stroke="url(#paint11_linear_108_342)" stroke-opacity="0.1"/>
<path d="M-66.4499 176.713C-62.8347 184.079 76.5407 176.892 94.7754 243.305C113.01 309.718 -18.3344 301.252 167.038 447.046C130.665 456.754 231.772 748.628 65.7806 491.235C-100.211 233.843 244.924 542.789 271.534 684.131C298.143 825.473 357.768 514.376 417.189 529.921C476.61 545.465 490.775 847.771 556.8 717.01C560.683 709.321 549.027 875.374 514.533 965.477C480.039 1055.58 620.684 1088.38 620.684 1088.38C595.338 1114.36 518.07 1094.53 606.65 1182.66C520.722 1175.15 360.687 1185.32 346.628 1151.58C332.569 1117.83 279.233 828.028 95.2551 755.969C-68.0949 678.366 -161.266 293.568 -25.0228 500.611C111.22 707.654 -208.077 496.384 -245.966 390.324L-66.4499 176.713Z" stroke="url(#paint12_linear_108_342)" stroke-opacity="0.1"/>
<path d="M-66.4499 176.713C-62.8347 184.079 76.5407 176.892 94.7754 243.305C113.01 309.718 -18.3344 301.252 167.038 447.046C130.665 456.754 231.772 748.628 65.7806 491.235C-100.211 233.843 244.924 542.789 271.534 684.131C298.143 825.473 357.768 514.376 417.189 529.921C476.61 545.465 490.775 847.771 556.8 717.01C560.683 709.321 549.027 875.374 514.533 965.477C480.039 1055.58 620.684 1088.38 620.684 1088.38C595.338 1114.36 518.07 1094.53 606.65 1182.66C520.722 1175.15 360.687 1185.32 346.628 1151.58C332.569 1117.83 279.233 828.028 95.2551 755.969C-68.0949 678.366 -161.266 293.568 -25.0228 500.611C111.22 707.654 -208.077 496.384 -245.966 390.324L-66.4499 176.713Z" stroke="url(#paint13_linear_108_342)" stroke-opacity="0.1"/>
<path d="M-74.7981 183.923C-71.183 191.289 68.1924 184.102 86.4271 250.515C104.662 316.928 -26.6827 308.462 158.689 454.256C122.317 463.965 223.424 755.838 57.4324 498.446C-108.56 241.053 236.575 549.999 263.185 691.341C289.795 832.683 349.42 521.586 408.841 537.131C468.261 552.675 482.427 854.981 548.452 724.22C552.335 716.531 540.679 882.585 506.185 972.688C471.691 1062.79 612.336 1095.59 612.336 1095.59C586.99 1121.57 509.722 1101.74 598.301 1189.87C512.374 1182.36 352.339 1192.53 338.28 1158.79C324.221 1125.04 270.885 835.238 86.9069 763.179C-76.4432 685.577 -169.614 300.778 -33.3711 507.821C102.872 714.865 -216.425 503.594 -254.314 397.534L-74.7981 183.923Z" stroke="url(#paint14_linear_108_342)" stroke-opacity="0.1"/>
<path d="M-74.7981 183.923C-71.183 191.289 68.1924 184.102 86.4271 250.515C104.662 316.928 -26.6827 308.462 158.689 454.256C122.317 463.965 223.424 755.838 57.4324 498.446C-108.56 241.053 236.575 549.999 263.185 691.341C289.795 832.683 349.42 521.586 408.841 537.131C468.261 552.675 482.427 854.981 548.452 724.22C552.335 716.531 540.679 882.585 506.185 972.688C471.691 1062.79 612.336 1095.59 612.336 1095.59C586.99 1121.57 509.722 1101.74 598.301 1189.87C512.374 1182.36 352.339 1192.53 338.28 1158.79C324.221 1125.04 270.885 835.238 86.9069 763.179C-76.4432 685.577 -169.614 300.778 -33.3711 507.821C102.872 714.865 -216.425 503.594 -254.314 397.534L-74.7981 183.923Z" stroke="url(#paint15_linear_108_342)" stroke-opacity="0.1"/>
<defs>
<linearGradient id="paint0_linear_108_342" x1="530.754" y1="454.56" x2="288.823" y2="953.272" gradientUnits="userSpaceOnUse">
<stop offset="0.00132747" stop-color="#246FE3"/>
<stop offset="1" stop-color="#B620E0"/>
</linearGradient>
<linearGradient id="paint1_linear_108_342" x1="522.406" y1="461.77" x2="280.474" y2="960.482" gradientUnits="userSpaceOnUse">
<stop offset="0.00132747" stop-color="#246FE3"/>
<stop offset="1" stop-color="#B620E0"/>
</linearGradient>
<linearGradient id="paint2_linear_108_342" x1="512.865" y1="470.011" x2="270.934" y2="968.722" gradientUnits="userSpaceOnUse">
<stop offset="0.00132747" stop-color="#246FE3"/>
<stop offset="1" stop-color="#B620E0"/>
</linearGradient>
<linearGradient id="paint3_linear_108_342" x1="504.517" y1="477.221" x2="262.585" y2="975.933" gradientUnits="userSpaceOnUse">
<stop offset="0.00132747" stop-color="#246FE3"/>
<stop offset="1" stop-color="#B620E0"/>
</linearGradient>
<linearGradient id="paint4_linear_108_342" x1="494.976" y1="485.462" x2="253.045" y2="984.173" gradientUnits="userSpaceOnUse">
<stop offset="0.00132747" stop-color="#246FE3"/>
<stop offset="1" stop-color="#B620E0"/>
</linearGradient>
<linearGradient id="paint5_linear_108_342" x1="486.628" y1="492.672" x2="244.697" y2="991.383" gradientUnits="userSpaceOnUse">
<stop offset="0.00132747" stop-color="#246FE3"/>
<stop offset="1" stop-color="#B620E0"/>
</linearGradient>
<linearGradient id="paint6_linear_108_342" x1="477.087" y1="500.912" x2="235.156" y2="999.624" gradientUnits="userSpaceOnUse">
<stop offset="0.00132747" stop-color="#246FE3"/>
<stop offset="1" stop-color="#B620E0"/>
</linearGradient>
<linearGradient id="paint7_linear_108_342" x1="468.739" y1="508.123" x2="226.808" y2="1006.83" gradientUnits="userSpaceOnUse">
<stop offset="0.00132747" stop-color="#246FE3"/>
<stop offset="1" stop-color="#B620E0"/>
</linearGradient>
<linearGradient id="paint8_linear_108_342" x1="459.198" y1="516.363" x2="217.267" y2="1015.07" gradientUnits="userSpaceOnUse">
<stop offset="0.00132747" stop-color="#246FE3"/>
<stop offset="1" stop-color="#B620E0"/>
</linearGradient>
<linearGradient id="paint9_linear_108_342" x1="450.85" y1="523.573" x2="208.919" y2="1022.28" gradientUnits="userSpaceOnUse">
<stop offset="0.00132747" stop-color="#246FE3"/>
<stop offset="1" stop-color="#B620E0"/>
</linearGradient>
<linearGradient id="paint10_linear_108_342" x1="441.309" y1="531.814" x2="199.378" y2="1030.53" gradientUnits="userSpaceOnUse">
<stop offset="0.00132747" stop-color="#246FE3"/>
<stop offset="1" stop-color="#B620E0"/>
</linearGradient>
<linearGradient id="paint11_linear_108_342" x1="432.961" y1="539.024" x2="191.03" y2="1037.74" gradientUnits="userSpaceOnUse">
<stop offset="0.00132747" stop-color="#246FE3"/>
<stop offset="1" stop-color="#B620E0"/>
</linearGradient>
<linearGradient id="paint12_linear_108_342" x1="431.768" y1="540.054" x2="189.762" y2="1040.49" gradientUnits="userSpaceOnUse">
<stop offset="0.00132747" stop-color="#246FE3"/>
<stop offset="1" stop-color="#B620E0"/>
</linearGradient>
<linearGradient id="paint13_linear_108_342" x1="431.768" y1="540.054" x2="189.762" y2="1040.49" gradientUnits="userSpaceOnUse">
<stop offset="0.00132747" stop-color="#246FE3"/>
<stop offset="1" stop-color="#B620E0"/>
</linearGradient>
<linearGradient id="paint14_linear_108_342" x1="423.42" y1="547.264" x2="181.413" y2="1047.7" gradientUnits="userSpaceOnUse">
<stop offset="0.00132747" stop-color="#246FE3"/>
<stop offset="1" stop-color="#B620E0"/>
</linearGradient>
<linearGradient id="paint15_linear_108_342" x1="423.42" y1="547.264" x2="181.413" y2="1047.7" gradientUnits="userSpaceOnUse">
<stop offset="0.00132747" stop-color="#246FE3"/>
<stop offset="1" stop-color="#B620E0"/>
</linearGradient>
</defs>
</svg>
