<svg width="57" height="57" viewBox="0 0 57 57" fill="none" xmlns="http://www.w3.org/2000/svg">
<circle cx="28.5" cy="28.5" r="28.5" fill="url(#paint0_linear_54_220)"/>
<path d="M18.5 47C17.5375 47 16.7138 46.6553 16.029 45.9658C15.3442 45.2763 15.0012 44.4464 15 43.4762V25.8571C15 24.8881 15.343 24.0588 16.029 23.3693C16.715 22.6798 17.5387 22.3345 18.5 22.3333H20.25V18.8095C20.25 16.3722 21.1034 14.2949 22.8102 12.5777C24.5171 10.8604 26.5803 10.0012 29 10C31.4197 9.99883 33.4835 10.858 35.1915 12.5777C36.8995 14.2973 37.7523 16.3746 37.75 18.8095V22.3333H39.5C40.4625 22.3333 41.2867 22.6787 41.9727 23.3693C42.6587 24.06 43.0012 24.8893 43 25.8571V43.4762C43 44.4452 42.6576 45.2751 41.9727 45.9658C41.2879 46.6564 40.4637 47.0012 39.5 47H18.5ZM29 38.1905C29.9625 38.1905 30.7867 37.8457 31.4727 37.1562C32.1587 36.4667 32.5012 35.6369 32.5 34.6667C32.4988 33.6964 32.1564 32.8672 31.4727 32.1789C30.7891 31.4905 29.9648 31.1452 29 31.1429C28.0352 31.1405 27.2115 31.4858 26.529 32.1789C25.8465 32.8719 25.5035 33.7011 25.5 34.6667C25.4965 35.6322 25.8395 36.462 26.529 37.1562C27.2185 37.8504 28.0422 38.1952 29 38.1905ZM23.75 22.3333H34.25V18.8095C34.25 17.3413 33.7396 16.0933 32.7187 15.0655C31.6979 14.0377 30.4583 13.5238 29 13.5238C27.5417 13.5238 26.3021 14.0377 25.2812 15.0655C24.2604 16.0933 23.75 17.3413 23.75 18.8095V22.3333Z" fill="black"/>
<defs>
<linearGradient id="paint0_linear_54_220" x1="13.2693" y1="3.19387e-07" x2="43.7307" y2="57" gradientUnits="userSpaceOnUse">
<stop stop-color="#DB0FAA"/>
<stop offset="1" stop-color="#A10B7E"/>
</linearGradient>
</defs>
</svg>
